<?xml version="1.0" standalone="no"?>
<!DOCTYPE svg PUBLIC "-//W3C//DTD SVG 20010904//EN"
 "http://www.w3.org/TR/2001/REC-SVG-20010904/DTD/svg10.dtd">
<svg version="1.0" xmlns="http://www.w3.org/2000/svg"
 width="300.000000pt" height="300.000000pt" viewBox="0 0 300.000000 300.000000"
 preserveAspectRatio="xMidYMid meet">

<g transform="translate(0.000000,300.000000) scale(0.100000,-0.100000)"
fill="#000000" stroke="none">
<path d="M1340 2989 c-113 -12 -268 -50 -382 -94 -614 -236 -1010 -871 -949
-1519 36 -379 189 -698 459 -958 419 -401 1029 -523 1574 -313 614 236 1010
871 949 1519 -36 379 -189 698 -459 958 -319 305 -749 452 -1192 407z m465
-37 c625 -141 1084 -639 1166 -1267 16 -124 6 -375 -20 -490 -139 -624 -638
-1084 -1266 -1166 -124 -16 -375 -6 -490 20 -624 139 -1084 638 -1166 1266
-16 124 -6 375 20 490 43 195 111 355 221 518 232 347 588 575 1005 643 119
20 414 12 530 -14z"/>
<path d="M1370 2810 c-317 -31 -590 -160 -816 -385 -254 -253 -385 -569 -386
-930 -1 -281 76 -531 235 -765 113 -165 327 -347 511 -434 307 -146 668 -170
986 -66 200 65 371 171 526 325 255 254 387 574 386 940 0 217 -42 395 -142
592 -160 318 -432 553 -769 663 -157 51 -371 75 -531 60z m-258 -585 c57 -111
177 -212 293 -249 33 -10 67 -21 75 -24 8 -2 -7 -10 -34 -18 -147 -39 -277
-144 -339 -275 -20 -41 -39 -91 -42 -111 -8 -45 -20 -42 -28 6 -10 63 -67 165
-127 230 -66 70 -150 121 -245 147 l-60 16 60 17 c178 52 321 191 365 356 7
25 15 52 17 60 3 8 13 -12 22 -45 10 -33 29 -83 43 -110z m853 108 c41 -143
140 -264 267 -328 39 -19 89 -38 110 -41 52 -9 56 -21 9 -29 -62 -10 -171 -68
-230 -121 -67 -60 -120 -141 -145 -219 -10 -33 -21 -67 -24 -75 -2 -8 -10 7
-18 34 -49 184 -196 331 -380 380 -27 8 -42 16 -34 18 8 3 42 14 75 24 160 50
299 201 337 363 6 28 13 51 14 51 1 0 10 -26 19 -57z m-854 -1001 c61 -123
215 -244 341 -267 45 -8 42 -20 -6 -28 -63 -10 -165 -67 -230 -127 -70 -66
-121 -150 -147 -245 l-16 -60 -17 60 c-42 145 -140 266 -268 330 -39 19 -89
38 -110 41 -52 9 -56 21 -9 29 63 11 177 70 233 122 65 61 123 150 144 222 9
31 19 63 22 71 2 8 10 -7 18 -34 7 -27 27 -78 45 -114z m852 114 c10 -63 67
-165 127 -230 66 -70 150 -121 245 -147 l60 -16 -60 -17 c-145 -42 -266 -140
-330 -268 -19 -39 -38 -89 -41 -110 -9 -52 -21 -56 -29 -9 -10 62 -68 171
-121 230 -60 67 -141 120 -219 145 -33 10 -67 21 -75 24 -8 2 7 10 34 18 147
39 277 144 339 275 20 41 39 91 42 111 8 45 20 42 28 -6z"/>
</g>
</svg>
